# xmcd CD database file generated by Grip 3.0.1
# 
# Track frame offsets:
#       150
#       19252
#       35122
# 
# Disc length: 713 seconds
# 
# Revision: 3
# Processed by: cddbd v1.4PL0 Copyright (c) Steve Scherf et al.
# Submitted via: Grip 3.0.1
# 
DISCID=2102c703
DTITLE=Manowar - Live In Portugal (Bonus Disc)
DYEAR=1999
DGENRE=Heavy Metal
TTITLE0=Carry On (Lisbon)
TTITLE1=Kill With Power (Porto)
TTITLE2=Kings of Metal (Lisbon)
EXTD=
EXTT0=
EXTT1=
EXTT2=
PLAYORDER=
